<?xml version="1.0" encoding="UTF-8"?>
<svg width="256px" height="256px" viewBox="0 0 256 256" version="1.1" xmlns="http://www.w3.org/2000/svg" xmlns:xlink="http://www.w3.org/1999/xlink">
    <!-- Generator: Sketch 49 (51002) - http://www.bohemiancoding.com/sketch -->
    <title>Group 6</title>
    <desc>Created with Sketch.</desc>
    <defs></defs>
    <g id="Page-1" stroke="none" stroke-width="1" fill="none" fill-rule="evenodd">
        <g id="Group-6">
            <rect id="Rectangle-9" fill="#19B885" x="0" y="0" width="256" height="256" rx="6"></rect>
            <g id="sparrow-logo-copy-3" transform="translate(70.000000, 52.000000)" fill="#FFFFFF">
                <path d="M65.8710774,8.07693668 L65.6394871,8.05642023 C65.5519974,8.05129112 65.0836704,8 64.3065564,8 C60.6474299,8 51.3014752,8.95401486 43.4222591,17.8068624 L39.5830068,22.1666077 L65.3924575,30.6347718 L33.499902,99.6367174 L38.4250554,98.2108242 C42.0018387,97.1798727 45.4448143,95.8822073 48.6561995,94.3639901 C61.2598575,88.41422 69.2522956,80.7718429 73.3540168,69.2108242 L78.7526437,69.4365051 C67.7135068,101.160064 31.0501914,105.176158 29.4650846,105.330032 L22.2240283,106.058366 L14,124 L18.1892109,123.902547 C79.2261172,121.86116 107.521304,86.1625398 107.994777,53.8440042 C108.298418,32.3837991 95.3756797,9.9029006 65.8710774,8.07693668" id="bird-fill" fill-opacity="0"></path>
                <path d="M60.3419123,0 C54.4094649,0.706185567 45.1690389,3.29896907 37.2382385,12.128866 L25.7646661,25.0618557 L54.7433933,34.4896907 L20.3539818,108.242268 L29.025686,107.391753 C30.7370692,107.226804 71.1006692,102.85567 81.760291,67.4226804 L71.1893689,67.4123711 C67.1457042,78.0876289 59.1314217,86.3402062 47.2247858,91.9226804 C43.6454904,93.5979381 40.1757652,94.7989691 37.2069327,95.6494845 L68.481418,28.5773196 L43.1967741,20.3608247 L44.7151049,18.6494845 C53.7155199,8.62886598 64.8082052,9.59278351 65.2412686,9.62886598 C93.9017203,11.4020619 106.319684,32.8247423 106.022279,53.2835052 C105.568345,84.6804124 77.6018384,119.376289 17.275579,121.371134 L14.2076115,121.474227 L0,152 L10.9674621,152 L20.7035632,131.092784 C85.4178509,127.768041 115.481846,88.7835052 115.993174,53.4226804 C116.421019,24.2886598 96.698371,2.58247423 67.8500845,0 L60.3419123,0 Z" id="bird"></path>
            </g>
        </g>
    </g>
</svg>